<?xml version="1.0" standalone="no"?>
<!DOCTYPE svg PUBLIC "-//W3C//DTD SVG 20010904//EN"
 "http://www.w3.org/TR/2001/REC-SVG-20010904/DTD/svg10.dtd">
<svg version="1.0" xmlns="http://www.w3.org/2000/svg"
 width="406.000000pt" height="467.000000pt" viewBox="0 0 406.000000 467.000000"
 preserveAspectRatio="xMidYMid meet">
<metadata>
Created by potrace 1.15, written by Peter Selinger 2001-2017
</metadata>
<g transform="translate(0.000000,467.000000) scale(0.100000,-0.100000)"
fill="#000000" stroke="none">
<path d="M1496 4380 c-275 -159 -503 -295 -508 -302 -4 -7 -8 -120 -8 -250 l0
-237 -199 114 c-124 72 -209 115 -226 115 -18 0 -118 -52 -274 -142 -135 -78
-254 -148 -264 -156 -16 -14 -17 -81 -15 -1191 l3 -1176 1000 -577 c594 -343
1010 -578 1025 -578 26 0 537 290 552 313 4 6 8 118 8 249 l0 236 197 -114
c206 -119 244 -132 276 -96 15 16 17 55 19 297 l3 279 205 118 c113 66 212
117 220 115 8 -2 118 -63 245 -136 235 -135 253 -142 292 -109 10 8 13 254 13
1183 0 1104 -1 1173 -17 1187 -10 8 -129 79 -264 156 -163 94 -256 142 -275
142 -19 0 -99 -41 -224 -114 l-195 -113 -5 243 c-3 143 -9 247 -15 252 -5 5
-234 138 -507 295 -384 221 -505 287 -530 286 -24 0 -164 -76 -532 -289z m964
-92 c231 -134 420 -245 420 -249 0 -7 -836 -489 -850 -489 -14 0 -850 482
-850 489 0 9 833 490 848 490 7 1 202 -108 432 -241z m-915 -611 l420 -243 3
-492 c1 -271 -1 -492 -5 -491 -5 0 -87 47 -183 103 l-175 102 -3 281 c-2 244
-4 283 -18 294 -9 8 -118 73 -243 145 l-226 130 -3 207 c-1 114 1 207 5 207 5
0 197 -110 428 -243z m-806 -98 c97 -56 223 -130 281 -164 58 -34 169 -99 248
-145 l143 -82 -180 -104 c-100 -57 -183 -104 -186 -104 -3 0 -108 59 -233 132
-125 72 -316 183 -425 246 -166 97 -196 117 -180 126 10 5 90 52 178 103 88
51 164 93 169 93 5 0 88 -46 185 -101z m2952 -1 c98 -57 175 -106 171 -110 -8
-8 -821 -478 -839 -485 -12 -5 -363 194 -363 206 0 3 87 56 193 117 105 61
293 170 417 243 124 72 229 131 234 131 5 0 89 -46 187 -102z m237 -896 l-3
-229 -175 101 -175 102 0 249 0 248 175 101 175 101 3 -222 c1 -122 1 -325 0
-451z m-2955 190 c15 -13 17 -37 17 -219 0 -111 -3 -203 -7 -203 -5 0 -88 46
-185 102 l-178 102 0 213 0 212 168 -96 c92 -53 175 -103 185 -111z m2467 -5
l0 -213 -178 -102 c-97 -56 -180 -102 -185 -102 -4 0 -7 92 -7 204 0 177 2
205 17 217 12 11 339 204 351 208 1 1 2 -95 2 -212z m-666 102 l176 -101 0
-1059 c0 -583 -3 -1059 -6 -1059 -3 0 -84 45 -180 101 l-174 101 0 1059 c0
582 2 1059 4 1059 2 0 83 -46 180 -101z m-1951 -574 l157 -90 0 -213 c0 -117
-3 -211 -7 -209 -5 3 -91 53 -193 112 -102 59 -274 160 -383 223 -137 79 -195
118 -188 125 6 6 86 54 178 107 l168 98 56 -32 c30 -17 126 -71 212 -121z
m2870 45 c98 -56 177 -104 175 -105 -2 -2 -176 -103 -388 -225 -212 -122 -388
-224 -392 -227 -5 -2 -8 92 -8 209 l0 213 212 122 c117 67 215 120 218 119 3
-2 85 -49 183 -106z m-1852 -66 c98 -57 183 -104 189 -104 5 0 103 54 217 120
l208 121 3 -452 c1 -249 0 -454 -2 -457 -3 -2 -195 105 -428 240 l-423 244 -3
212 -2 213 30 -16 c17 -9 112 -63 211 -121z m2085 -1051 c-2 -3 -82 40 -178
95 l-173 100 -3 249 -2 248 177 102 178 102 3 -446 c1 -245 0 -448 -2 -450z
m-1961 412 c226 -130 414 -240 418 -244 8 -8 -335 -211 -355 -211 -14 0 -848
481 -848 489 1 10 354 210 365 207 6 -2 195 -110 420 -241z m-1189 119 c82
-48 264 -153 404 -233 140 -81 375 -217 522 -302 l268 -154 0 -207 c0 -115 -3
-208 -6 -208 -3 0 -307 174 -675 386 l-669 386 0 209 c0 115 2 209 3 209 2 0
71 -39 153 -86z m2662 -125 l-3 -211 -170 -99 c-93 -54 -176 -99 -183 -99 -10
0 -12 45 -10 206 l3 207 175 102 c96 57 178 103 183 104 4 1 6 -94 5 -210z
m-2172 -726 l704 -406 0 -210 c0 -184 -2 -208 -15 -203 -32 12 -1755 1010
-1755 1016 0 7 339 207 353 209 5 1 325 -182 713 -406z"/>
</g>
</svg>
